<svg height="486pt" viewBox="0 -9 486.2536 486" width="486pt" xmlns="http://www.w3.org/2000/svg"><path d="m193.777344 373.050781c48.972656.167969 96.253906-17.890625 132.644531-50.664062l30.902344 29.699219-18.773438 18.039062c-1.175781 1.132812-1.839843 2.695312-1.839843 4.328125s.664062 3.195313 1.839843 4.324219l81.671875 78.488281c15.320313 14.472656 39.273438 14.460937 54.578125-.027344.503907-.476562.996094-.96875 1.472657-1.472656 13.851562-14.691406 13.207031-37.816406-1.441407-51.710937l-81.632812-78.457032c-2.324219-2.230468-5.992188-2.230468-8.316407 0l-18.898437 18.164063-30.917969-29.710938c32.53125-33.367187 52.488282-78.214843 52.488282-127.464843 0-102.8125-86.929688-186.460938-193.777344-186.460938s-193.777344 83.648438-193.777344 186.464844 86.933594 186.460937 193.777344 186.460937zm195.261718-34.800781 77.515626 74.5c9.863281 9.339844 10.308593 24.898438.996093 34.785156-.324219.339844-.65625.671875-1.027343 1.023438-10.660157 10.085937-27.339844 10.101562-38.019532.035156l-77.136718-74.136719zm-195.261718-326.125c100.230468 0 181.777344 78.265625 181.777344 174.464844 0 96.199218-81.546876 174.460937-181.777344 174.460937-100.230469 0-181.777344-78.261719-181.777344-174.460937 0-96.199219 81.546875-174.464844 181.777344-174.464844zm0 0"/><path d="m83.777344 290.757812h154.269531c8.832031-.011718 15.988281-7.167968 16-16v-24.851562l56.84375 31.191406c1.859375 1.019532 4.117187.980469 5.941406-.097656 1.828125-1.082031 2.945313-3.042969 2.945313-5.164062v-109.652344c0-2.121094-1.121094-4.085938-2.945313-5.164063-1.824219-1.082031-4.082031-1.117187-5.941406-.097656l-56.84375 31.203125v-24.863281c-.011719-8.835938-7.167969-15.992188-16-16h-154.269531c-8.832032.007812-15.992188 7.164062-16 16v107.5c.011718 8.828125 7.167968 15.984375 16 15.996093zm224-114.4375v89.378907l-53.730469-29.480469v-30.40625zm-228-9.058593c0-2.210938 1.789062-4 4-4h154.269531c2.210937 0 4 1.789062 4 4v107.5c0 2.207031-1.789063 4-4 4h-154.269531c-2.210938 0-4-1.792969-4-4zm0 0"/><path d="m194.824219 146.597656c17.722656-.003906 32.085937-14.371094 32.082031-32.09375 0-17.71875-14.367188-32.082031-32.089844-32.082031-17.71875 0-32.082031 14.367187-32.082031 32.085937.019531 17.714844 14.375 32.070313 32.089844 32.089844zm0-52.175781c11.09375.003906 20.085937 8.996094 20.082031 20.089844 0 11.09375-8.996094 20.085937-20.089844 20.085937-11.089844-.003906-20.082031-8.996094-20.082031-20.089844.011719-11.085937 9-20.070312 20.089844-20.082031zm0 0"/><path d="m127 146.597656c17.71875 0 32.085938-14.367187 32.085938-32.089844 0-17.71875-14.367188-32.085937-32.085938-32.085937-17.722656 0-32.089844 14.367187-32.089844 32.085937.023438 17.714844 14.375 32.066407 32.089844 32.089844zm0-52.175781c11.09375 0 20.085938 8.992187 20.085938 20.085937s-8.992188 20.089844-20.085938 20.089844-20.089844-8.996094-20.089844-20.089844c.015625-11.085937 9.003906-20.066406 20.089844-20.082031zm0 0"/></svg>